<?xml version="1.0" encoding="UTF-8"?>
<svg width="1200pt" height="1200pt" version="1.1" viewBox="0 0 1200 1200" xmlns="http://www.w3.org/2000/svg">
 <path d="m47.297 170.81h1105.5c9.5625 0 17.25 7.7344 17.25 17.25v823.82c0 9.5625-7.7344 17.25-17.25 17.25l-1105.5 0.046876c-9.5625 0-17.297-7.7344-17.297-17.25v-823.82c0-9.5625 7.7344-17.25 17.297-17.25zm991.13 198.05c7.125-6.75 7.4062-18 0.65625-25.125s-18-7.4062-25.125-0.60938l-408.84 389.26-419.06-392.02c-7.1719-6.7031-18.375-6.3281-25.031 0.84375-6.7031 7.1719-6.3281 18.375 0.84375 25.078l226.78 212.16-227.95 256.4c-6.5156 7.3125-5.8594 18.609 1.4531 25.125s18.609 5.8594 25.125-1.4531l227.39-255.74 177.56 166.13c7.3594 7.3594 18.188 7.5469 25.266 0.79688l176.95-168.47 218.34 249.94c6.4688 7.3594 17.672 8.1094 25.031 1.6875 7.3594-6.4688 8.1562-17.672 1.6875-25.031l-219.37-251.11 218.26-207.79z" fill-rule="evenodd"/>
</svg>
