<?xml version="1.0" encoding="UTF-8"?>
<svg width="1200pt" height="1200pt" version="1.1" viewBox="0 0 1200 1200" xmlns="http://www.w3.org/2000/svg">
 <path d="m600 18.75c-110.95 0.125-217.31 44.254-295.76 122.7-78.449 78.449-122.58 184.82-122.7 295.76 0 153.96 124.45 326.95 244.81 494.24 58.148 80.824 118.29 164.41 161.74 242.79h-0.003906c2.4023 4.3281 6.9648 7.0117 11.914 7.0117s9.5117-2.6836 11.914-7.0117c43.449-78.375 103.59-161.96 161.74-242.79 120.36-167.29 244.81-340.27 244.81-494.24h-0.003906c-0.125-110.94-44.254-217.31-122.7-295.76-78.449-78.449-184.81-122.58-295.76-122.7zm0 598.99c-47.879 0-93.797-19.02-127.65-52.875-33.852-33.855-52.871-79.773-52.871-127.65 0-47.875 19.02-93.793 52.871-127.65 33.855-33.855 79.773-52.875 127.65-52.875s93.797 19.02 127.65 52.875c33.852 33.855 52.871 79.773 52.871 127.65-0.050782 47.863-19.09 93.75-52.93 127.59-33.844 33.844-79.73 52.879-127.59 52.934z"/>
</svg>
