<?xml version="1.0" encoding="UTF-8"?>
<svg width="1200pt" height="1200pt" version="1.1" viewBox="0 0 1200 1200" xmlns="http://www.w3.org/2000/svg">
 <path d="m1060.8 1117.2c-22.801 34.801-62.398 55.199-104.4 52.801s-96-8.3984-133.2-18c-165.6-43.199-337.2-146.4-482.4-291.6-145.2-145.2-248.4-316.8-291.6-482.4-9.6016-37.199-14.398-90-18-132-2.3984-40.801 16.801-80.398 51.602-103.2l147.6-98.398c38.398-25.199 90-12 110.4 28.801l120 231.6c16.801 32.398 8.3984 73.199-20.398 96l-108 84c43.199 80.398 84 145.2 163.2 223.2 73.199 73.199 136.8 116.4 219.6 160.8l85.199-109.2c22.801-28.801 63.602-38.398 96-20.398l232.8 120c40.801 20.398 54 72 28.801 110.4z"/>
</svg>
