<?xml version="1.0" encoding="UTF-8"?>
<svg width="1200pt" height="1200pt" version="1.1" viewBox="0 0 1200 1200" xmlns="http://www.w3.org/2000/svg">
 <path d="m343.06 403.52c-8.9141 0-17.094 2.6758-24.09 7.0859l258.83 226c13.676 11.949 30.227 11.949 43.926 0l259.3-226.24c-6.9727-4.3633-15.223-6.8477-24.09-6.8477h-513.89zm-42.746 30.699c-1.5703 4.6133-2.5977 9.4883-2.5977 14.645v302.29c0 25.121 20.223 45.344 45.344 45.344h513.89c25.121 0 45.344-20.223 45.344-45.344v-302.29c0-5.1562-1.0273-10.031-2.5977-14.641l-258.12 225.29c-24.047 20.977-59.559 20.77-83.602-0.23438l-257.65-225.06z"/>
</svg>
