<?xml version="1.0" encoding="UTF-8"?>
<svg width="1200pt" height="1200pt" version="1.1" viewBox="0 0 1200 1200" xmlns="http://www.w3.org/2000/svg">
 <path d="m149.81 392.76c-5.6719-102.38 138.42-306.84 194.95-223.69 0.1875 0.23438 0.32812 0.46875 0.46875 0.70313l117.89 189.71c1.5469 2.5312 12.844 24 13.406 26.906 9.1406 48.656-39.047 95.203-75.609 148.92-4.5938 6.75-8.5781 17.953-4.5469 25.031 32.672 56.953 62.109 91.922 106.73 136.55s79.594 74.062 136.55 106.73c7.0781 4.0781 18.281 0.046875 25.031-4.5469 53.719-36.516 100.31-84.75 148.92-75.609 2.9062 0.5625 24.422 11.812 26.906 13.406l189.71 117.89c0.28125 0.14062 0.46875 0.28125 0.70312 0.46875 83.156 56.531-121.31 200.63-223.69 194.9-148.22-8.25-308.44-98.484-433.69-223.74-125.26-125.16-215.48-285.37-223.74-433.64z" fill-rule="evenodd"/>
</svg>
